<?xml version="1.0" encoding="UTF-8"?><svg id="Layer_1" xmlns="http://www.w3.org/2000/svg" viewBox="0 0 300 300"><g id="lTohTv"><path d="M99.82,114.39c21.88,9.91,43.09,26.5,66.33,32.2,30.12,7.39,87,2.67,111.78-17.62,13.18-10.79,20.24-31.61-2.52-22.11-6.61,2.76-14.22,22.12-37.17,28.43-84.52,23.24-106.22-44.22-175.63-43.41-14.51.17-49.48,13.79-54.06,28.76-3.53,11.56,10.99,12.99,18.37,7.87,3.07-2.13,2.73-9.08,6.2-12.9,19.68-21.64,45.08-11.01,66.7-1.22Z"/></g><g id="lTohTv-2"><path d="M99.82,172.63c21.88,9.91,43.09,26.5,66.33,32.2,30.12,7.39,87,2.67,111.78-17.62,13.18-10.79,20.24-31.61-2.52-22.11-6.61,2.76-14.22,22.12-37.17,28.43-84.52,23.24-106.22-44.22-175.63-43.41-14.51.17-49.48,13.79-54.06,28.76-3.53,11.56,10.99,12.99,18.37,7.87,3.07-2.13,2.73-9.08,6.2-12.9,19.68-21.64,45.08-11.01,66.7-1.22Z"/></g></svg>