<?xml version="1.0" encoding="UTF-8"?><svg id="Layer_1" xmlns="http://www.w3.org/2000/svg" viewBox="0 0 300 300"><path d="M250.89,247.66C168.92,330.66,6.11,267.46,11.39,147.18,19.64,34.87,156.62-29.49,242.43,49.86c57.69,52.14,62.58,147.2,8.46,197.81h0ZM240.29,236.95c72.52-75.81,21.76-203.05-83.38-207.95C84.12,21.8,17.73,85.81,27.61,157.25c5.92,108.8,130.34,160.42,212.67,79.71h0Z"/><path d="M132.87,261.51C41.31,242.01,7.6,103.41,88.18,54.33c76.76-43.56,181.48,21.57,169.33,114.79-7.39,62.14-66.9,107.1-124.64,92.39h0ZM134.96,249.59c82.56,16.21,141.92-74.1,96.82-147.87-28.75-52.75-100.82-69.95-142.7-31.93-67.97,51.68-44.38,159.06,45.88,179.8h0Z"/><path d="M65.62,163.73c-14.71-69.57,73.03-125.7,132.93-79.87,54.79,44.41,41.26,133.92-28.6,146.94-46.35,9.18-96.76-22.65-104.33-67.07h0ZM74.72,162.45c14.24,62.41,96.75,83.6,134.99,34.43,28.43-32.67,18.17-87.86-21.83-108.78-57.81-36.28-126.57,5.42-113.16,74.35h0Z"/><path d="M159.25,91.72c48.79,5.41,66.6,75.07,23.59,104.42-40.97,26.31-96.72-1.93-90.13-50.54,4.01-32.37,35.78-58.53,66.54-53.88h0ZM158.13,97.96c-43.99-4.17-75.74,45.33-51.78,81.04,15.26,25.71,53.67,30.92,76.03,9.22,36.29-30.05,23.83-84.14-24.25-90.26h0Z"/></svg>