<?xml version="1.0" encoding="UTF-8"?><svg id="Layer_1" xmlns="http://www.w3.org/2000/svg" viewBox="0 0 300 300"><path d="M265.44,107.84c-2.77-.82-5.65-1.31-6.47,1.44-1.48,4.99-5.86,8.5-13.12,10.55-4.77,1.34-7.32,1.47-12.17,1.92-10.08.67-23.08-.16-38.98-2.51-3.51-.52-6.85-.82-10.03-.89-5.63-.42-11.05.67-15.82,1.88-4.76,1.42-8.9,3.62-12.37,6.62-.44.38-.87.78-1.29,1.18v-5.42s0-.09,0-.12c.02-10.23,3.13-34.38,31.17-40.55,16.68-3.67,27.63-13.63,34.55-23.18,2.71-3.88,3.13-4.58,5.49-8.85,3.44-6.55,4.86-11.59,5.01-12.14.75-2.77-.88-3.81-3.65-4.57-2.79-.73-5.64-.92-6.38,1.84-.13.48-1.47,5.13-4.69,11.01-1.98,3.74-5.49,8.36-6.08,9.07-5.78,7.09-14.29,13.96-26.49,16.65-3.02.66-5.89,1.53-8.6,2.59-5.09,1.86-11.83,6.45-14.67,8.9-2.08,1.85-3.97,3.89-5.67,6.08v-21.75c0-8.37,4.49-15.28,10.24-20.7.14-.12.27-.24.4-.37,10.11-9.31,23.82-14.09,24.03-14.16.23-.08.4-.19.59-.29,2.02-1.11,1.56-3.62.71-6.11-.7-2.06-1.41-3.5-2.91-3.68-.3-.04-.71.07-1.08.14-.23.04-.39,0-.65.09-.62.21-6.35,2.2-13.37,6.12-5.42,3-11.41,7.31-14.85,10.68-3.14,2.95-6.02,6.31-8.3,10.1-1.14-1.89-2.44-3.68-3.83-5.36-1.4-1.68-2.9-3.26-4.47-4.74-2.42-2.06-9.06-7.68-14.85-10.68-7.03-3.93-12.76-5.91-13.38-6.12-.69-.24-1.26-.3-1.74-.23-1.49.19-2.2,1.63-2.9,3.69-.92,2.72-1.42,5.48,1.3,6.4.03.01.43.15,1.06.39,3.4,1.3,14.44,5.92,22.97,13.77.13.13.26.25.4.37,5.75,5.42,10.24,12.32,10.24,20.7v21.76c-1.7-2.2-3.59-4.23-5.67-6.08-2.84-2.45-9.58-7.04-14.67-8.9-2.71-1.06-5.58-1.93-8.6-2.59-12.2-2.68-20.71-9.56-26.49-16.65-.59-.71-4.1-5.33-6.08-9.07-3.22-5.89-4.55-10.54-4.69-11.01-.75-2.76-3.59-2.57-6.38-1.84-2.77.77-4.4,1.8-3.65,4.57.15.55,1.57,5.59,5.01,12.14,2.36,4.27,2.78,4.97,5.49,8.85,6.92,9.54,17.87,19.51,34.55,23.18,28.03,6.17,31.14,30.32,31.17,40.55,0,.03,0,.09,0,.12v5.42c-.42-.41-.85-.8-1.29-1.18-3.47-3-7.61-5.2-12.37-6.62-4.77-1.21-10.18-2.3-15.82-1.88-3.17.07-6.51.37-10.03.89-15.89,2.35-28.9,3.18-38.98,2.51-4.85-.44-7.4-.58-12.17-1.92-7.26-2.05-11.64-5.57-13.12-10.55-.82-2.75-3.69-2.26-6.47-1.44-2.75.81-4.33,1.64-3.5,4.4,2.49,8.41,8.78,13.59,17.14,16.59,4.98,1.74,8.81,2.37,10.61,2.58,14.78,2.23,32.81.37,48.01-1.87,7.42-1.1,13.8-1.07,19.1.08.43.16.88.27,1.34.32,3.75.99,6.91,2.58,9.46,4.78,6.66,5.75,8.08,14.9,8.09,21.6v8.13h0s10.41,0,10.41,0v-8.14c.01-6.7,1.43-15.86,8.09-21.6,2.55-2.2,5.71-3.79,9.46-4.78.46-.05.91-.15,1.34-.32,5.29-1.15,11.67-1.18,19.1-.08,15.19,2.24,33.22,4.1,48.01,1.87,1.8-.21,5.63-.83,10.61-2.58,8.37-3,14.66-8.18,17.14-16.59.82-2.76-.75-3.59-3.5-4.4Z"/><path d="M34.56,192.16c2.77.82,5.65,1.31,6.47-1.44,1.48-4.99,5.86-8.5,13.12-10.55,4.77-1.34,7.32-1.47,12.17-1.92,10.08-.67,23.08.16,38.98,2.51,3.51.52,6.85.82,10.03.89,5.63.42,11.05-.67,15.82-1.88,4.76-1.42,8.9-3.62,12.37-6.62.44-.38.87-.78,1.29-1.18v5.42s0,.09,0,.12c-.02,10.23-3.13,34.38-31.17,40.55-16.68,3.67-27.63,13.63-34.55,23.18-2.71,3.88-3.13,4.58-5.49,8.85-3.44,6.55-4.86,11.59-5.01,12.14-.75,2.77.88,3.81,3.65,4.57,2.79.73,5.64.92,6.38-1.84.13-.48,1.47-5.13,4.69-11.01,1.98-3.74,5.49-8.36,6.08-9.07,5.78-7.09,14.29-13.96,26.49-16.65,3.02-.66,5.89-1.53,8.6-2.59,5.09-1.86,11.83-6.45,14.67-8.9,2.08-1.85,3.97-3.89,5.67-6.08v21.75c0,8.37-4.49,15.28-10.24,20.7-.14.12-.27.24-.4.37-10.11,9.31-23.82,14.09-24.03,14.16-.23.08-.4.19-.59.29-2.02,1.11-1.56,3.62-.71,6.11.7,2.06,1.41,3.5,2.91,3.68.3.04.71-.07,1.08-.14.23-.04.39,0,.65-.09.62-.21,6.35-2.2,13.37-6.12,5.42-3,11.41-7.31,14.85-10.68,3.14-2.95,6.02-6.31,8.3-10.1,1.14,1.89,2.44,3.68,3.83,5.36,1.4,1.68,2.9,3.26,4.47,4.74,2.42,2.06,9.06,7.68,14.85,10.68,7.03,3.93,12.76,5.91,13.38,6.12.69.24,1.26.3,1.74.23,1.49-.19,2.2-1.63,2.9-3.69.92-2.72,1.42-5.48-1.3-6.4-.03-.01-.43-.15-1.06-.39-3.4-1.3-14.44-5.92-22.97-13.77-.13-.13-.26-.25-.4-.37-5.75-5.42-10.24-12.32-10.24-20.7v-21.76c1.7,2.2,3.59,4.23,5.67,6.08,2.84,2.45,9.58,7.04,14.67,8.9,2.71,1.06,5.58,1.93,8.6,2.59,12.2,2.68,20.71,9.56,26.49,16.65.59.71,4.1,5.33,6.08,9.07,3.22,5.89,4.55,10.54,4.69,11.01.75,2.76,3.59,2.57,6.38,1.84,2.77-.77,4.4-1.8,3.65-4.57-.15-.55-1.57-5.59-5.01-12.14-2.36-4.27-2.78-4.97-5.49-8.85-6.92-9.54-17.87-19.51-34.55-23.18-28.03-6.17-31.14-30.32-31.17-40.55,0-.03,0-.09,0-.12v-5.42c.42.41.85.8,1.29,1.18,3.47,3,7.61,5.2,12.37,6.62,4.77,1.21,10.18,2.3,15.82,1.88,3.17-.07,6.51-.37,10.03-.89,15.89-2.35,28.9-3.18,38.98-2.51,4.85.44,7.4.58,12.17,1.92,7.26,2.05,11.64,5.57,13.12,10.55.82,2.75,3.69,2.26,6.47,1.44,2.75-.81,4.33-1.64,3.5-4.4-2.49-8.41-8.78-13.59-17.14-16.59-4.98-1.74-8.81-2.37-10.61-2.58-14.78-2.23-32.81-.37-48.01,1.87-7.42,1.1-13.8,1.07-19.1-.08-.43-.16-.88-.27-1.34-.32-3.75-.99-6.91-2.58-9.46-4.78-6.66-5.75-8.08-14.9-8.09-21.6v-8.13h0s-10.41,0-10.41,0v8.14c-.01,6.7-1.43,15.86-8.09,21.6-2.55,2.2-5.71,3.79-9.46,4.78-.46.05-.91.15-1.34.32-5.29,1.15-11.67,1.18-19.1.08-15.19-2.24-33.22-4.1-48.01-1.87-1.8.21-5.63.83-10.61,2.58-8.37,3-14.66,8.18-17.14,16.59-.82,2.76.75,3.59,3.5,4.4Z"/></svg>