<?xml version="1.0" encoding="UTF-8"?><svg id="Layer_1" xmlns="http://www.w3.org/2000/svg" viewBox="0 0 300 300"><path d="M160.17,49.03c37.79,39.58,46.87,98.24,39.25,150.67-39.6,4.5-80.82.08-116.89-17.82-23.63-11.69-43.52-31.56-55.22-55.19C9.36,90.59,4.93,49.35,9.41,9.7c52.46-7.62,111.18,1.5,150.76,39.33h0ZM146.57,62.64C112.01,29.47,60.96,20.44,14.56,19.26c0,0,4.62-4.62,4.62-4.62-.39,24.03,2.38,48.75,8.64,71.86,11.77,48.17,46.7,83.13,94.87,94.93,23.12,6.28,47.83,9.07,71.88,8.69l-4.53,4.53c-1.2-46.41-10.28-97.48-43.48-132.02h0Z"/><path d="M250.72,250.8c-39.43,37.81-98.03,46.92-150.41,39.71-2.63-39.59,2.47-80.01,20.44-115.65,11.74-23.02,31.04-42.25,54.1-53.9,35.49-17.73,75.74-22.71,115.04-19.99,7.28,52.1-1.68,110.45-39.17,149.82h0ZM238.01,238.09c33.42-34.66,42.64-85.87,43.62-132.52,0,0,4,4,4,4-36.06-1.93-73.99,3.2-106.49,19.66-33.01,16.32-53.97,48.85-62.55,83.98-5.87,23.51-8.06,48.45-6.5,72.45l-4.54-4.54c46.56-.79,97.74-9.81,132.47-43.02h0Z"/></svg>