<?xml version="1.0" encoding="UTF-8"?><svg id="Layer_1" xmlns="http://www.w3.org/2000/svg" viewBox="0 0 300 300"><path d="M85.47,144.81c-.72,0-1.32-.6-1.31-1.32.71-35.43,29.65-63.93,65.24-63.93s64.54,28.5,65.24,63.93c.01.72-.58,1.32-1.31,1.32h-127.87Z"/><circle cx="149.41" cy="33.09" r="10.84"/><circle cx="208.92" cy="54.78" r="10.84"/><circle cx="89.89" cy="54.78" r="10.84"/><circle cx="50.97" cy="99.38" r="10.84"/><circle cx="247.84" cy="99.38" r="10.84"/><path d="M21.71,140.12c23.66-2.22,58.29-1.58,82.39-1.34,49.83-.16,120.73,2.14,169.92.45,0,0,2.57-.09,2.57-.09h.9c6.76-.15,12.31,7.06,11,13.4-2.82,23.45-10.17,46.27-23.05,66.32-33.2,50.61-98.11,70.78-154.56,51.91-53.78-13.59-96.61-59.12-99.3-115.7,0,0-.15-2.7-.15-2.7-.94-6.14,3.87-12.32,10.28-12.26h0ZM21.71,152.88c1.36-.05,2.5-1.2,2.46-2.5-.05.63.32,2.94.32,3.63,3.22,35.94,21.63,70.44,51.47,89.93,41.96,31.59,110.96,29.69,150.99-2.86,26.02-20.58,40.65-60.65,46.53-90.31.15,1.73,1.77,3.16,3.51,3.12.29-.01-.29-.02-.39-.02l-2.57-.09-5.15-.16c-45.1-3.23-116.6-3.03-163.99-3.23-24.14.31-59.44,0-83.17,2.5h0Z"/></svg>