<?xml version="1.0" encoding="UTF-8"?><svg id="Layer_1" xmlns="http://www.w3.org/2000/svg" viewBox="0 0 300 300"><path d="M98.84,191.99c-14.44-2.76-27.96-5.02-41.32-7.98-12-2.66-22.88-7.69-30.96-17.53-7.85-9.54-5.09-21.42-1.72-27.99,10.12-19.74,28.58-31.66,49.83-38.22,11.42-3.52,28.4-8.26,41.11-9.61-12.12-2.54-28.01-10.16-37.26-17.54-11.06-8.82-12.41-21.83-2.6-32.24,7.09-7.53,16.25-14.29,25.8-18.12,31.78-12.73,65.45-14.41,97.17-2.85,12.09,4.4,13.93,6.52,19.83,11.21,10.9,8.66,14.93,28.2.83,39.87-10.5,8.69-18.45,12.17-31.08,16.9-2.34.88-4.94,1.57-8.61,2.63,5.54.86,11.05,1.9,16.61,2.56,22.85,2.73,44.87,7.99,64.4,20.84,20,13.16,23.42,36.49,8.05,54.7-8.48,10.05-19.04,17.25-31.91,20.05-10.84,2.37-21.95,3.51-31.24,4.93,4.61,2.23,11.31,4.8,17.31,8.51,10.83,6.7,15.02,17.47,12.62,30.01-4.91,25.67-26.77,45.63-55.57,50.84-27.83,5.03-55.79,6.33-83.93,3.21-15.33-1.7-28.76-7.5-39.56-18.6-14.08-14.47-14.91-32.76-2.22-48.4,9.95-12.26,23.03-20.02,37.8-25.14,1.94-.67,3.92-1.22,6.58-2.05ZM163.18,182.44c2.64.06,5.34,0,7.97-.21,12.06-.92,30.85-2.08,49.49-4.37,14.12-1.73,27.79-5.95,38.66-16.07,7.23-6.72,9.02-15.21,3.24-23.11-4.68-6.38-9.6-12.28-21.76-18.69-15.12-7.97-26.91-12.33-43.47-16.12-38.58-8.83-77.21-4.49-115.15,5.04-19.44,4.88-34.83,16.29-44.52,34.34-5.13,9.55-2.85,17.21,6.72,22.08,3.9,1.99,8.11,3.51,12.34,4.68,32.1,8.92,64.99,11.44,106.48,12.42ZM113.39,276.29c27.66-.3,50.97-1.74,76.89-10.02,10.77-3.44,23.53-12.23,29.28-17.35,13.49-12.01,7.34-29.36-7.46-39.77-3.35-2.35-7.4-4.13-11.25-5.2-10.42-2.9-22.92-3.91-32.56-4.65-24.4-1.86-38.53-.18-59.53,3.99-13.32,2.65-25.51,10.57-34.97,20.39-16.85,17.48-11.61,44.29,11.99,49.47,9,1.98,18.4,2.15,27.62,3.15ZM153.47,79.6c3.67.23,7.34.13,11-.2,6.09-.55,13.68-1.1,20.69-3.4,10.15-3.34,19.93-8.57,28.88-14.48,6.81-4.49,7.15-11.2,1.93-17.6-3.26-4-7.75-7.45-12.37-9.81-32.35-16.52-64.43-14.97-96.5-1.72-7.32,3.03-16.67,9.97-19.52,17.5-2.42,6.4,3.04,12.77,9.46,16.24,16.94,9.17,35.21,12.13,56.42,13.47Z"/></svg>