<?xml version="1.0" encoding="UTF-8"?><svg id="Layer_1" xmlns="http://www.w3.org/2000/svg" viewBox="0 0 300 300"><path d="M255.18,250.7C170.66,336.28,2.79,271.12,8.23,147.09,16.75,31.29,157.98-35.08,246.46,46.74c59.48,53.77,64.52,151.78,8.72,203.96h0ZM244.25,239.66c74.77-78.17,22.43-209.37-85.97-214.42C83.22,17.81,14.77,83.81,24.96,157.47c6.11,112.18,134.39,165.41,219.29,82.19h0Z"/><path d="M64.15,164.16c-15.17-71.74,75.3-129.61,137.07-82.35,56.5,45.79,42.54,138.09-29.49,151.51-47.79,9.47-99.77-23.35-107.57-69.16h0ZM73.53,162.84c14.68,64.35,99.76,86.2,139.19,35.5,29.32-33.69,18.73-90.6-22.51-112.16-59.61-37.41-130.51,5.59-116.68,76.66h0Z"/><path d="M178.16,85.47c-3.17-15.01,15.75-27.12,28.68-17.23,11.82,9.58,8.9,28.89-6.17,31.7-10,1.98-20.87-4.89-22.51-14.47h0Z"/><path d="M81.54,211.54c-3.17-15.01,15.75-27.12,28.68-17.23,11.82,9.58,8.9,28.89-6.17,31.7-10,1.98-20.87-4.89-22.51-14.47h0Z"/><path d="M6.14,107.24c-3.17-15.01,15.75-27.12,28.68-17.23,11.82,9.58,8.9,28.89-6.17,31.7-10,1.98-20.87-4.89-22.51-14.47h0Z"/><path d="M258.24,203.85c-3.17-15.01,15.75-27.12,28.68-17.23,11.82,9.58,8.9,28.89-6.17,31.7-10,1.98-20.87-4.89-22.51-14.47h0Z"/></svg>