<?xml version="1.0" encoding="UTF-8"?><svg id="Layer_1" xmlns="http://www.w3.org/2000/svg" viewBox="0 0 300 300"><path d="M143.95,220.81c-15.46-.02-32.84-8.68-46.48-23.18-18.73-18.97-23.42-49.64-11.94-78.14,10.59-26.31,32.19-43.05,56.44-43.69,1.84-.22,2.88-.57,4.5-2.74l.08-.13c.93-2,.85-2.93.77-3.92-.04-.43-.08-.88-.02-1.53.16-8.66-.06-17.73-.27-26.51-.29-12.2-.59-24.81.1-36.7l.05-.81h-.81s-9.26.18-11.09.21l-1.21-1.19.16,2.01c.29,3.72.67,8.05,1.07,12.69,1.31,15.15,2.95,34,2.89,46.11l.02,1.08c.01.8.02,1.75.04,2.67-17.65,1.34-33.51,8.43-45.93,20.55l-19.64-19.08c-8.86-8.69-16.58-16.57-23.62-24.09l-.56-.59-8.88,9.78.56.5c13.9,12.55,28.45,26.37,44.45,42.22-10.2,13.5-16.17,30.44-16.87,47.86l-29.34.14c-12.42.02-23.56-.2-34.05-.67l-.78-.04v13.41l.78-.03c20.58-.82,42.03-1.17,63.75-1.01,1.51,15.3,7.17,29.65,16.39,41.56-14.19,14.97-29.47,30.32-45.44,45.64l-.53.5,7.84,8.63,24.62-24.28c7.29-7.12,14.78-14.17,22.27-20.95,6.31,5.91,13.54,10.92,21.49,14.89,6.95,3.48,13.98,5.86,21.43,8.38l1.35.46-.66,65.69h11.44l.68-69.65c.19-1.63-.32-3.24-1.39-4.43-.96-1.07-2.24-1.65-3.67-1.63Z"/><path d="M296.69,78.88l-.36-.64s-4.26-7.55-4.32-7.66l-.38-.69-.67.42c-13.75,8.56-31.74,19.73-49.88,30.81,3.61-11.81,7.52-24.28,12.1-36.56l.27-.73-12.35-4.17-.2.78c-4.07,15.81-8.85,32.06-14.58,49.65-18.15,10.95-35.62,21.14-51.95,30.3-.06-22.34-.01-42.66.13-62.06,11.94-11.91,24.28-24.21,37.43-35.79l.57-.5-8.89-9.79-.56.61c-5.17,5.67-10.98,11.73-18.27,19.07-2.34,2.33-4.7,4.63-7.06,6.93-1.02,1-2.04,1.99-3.05,2.99.15-16.06.36-36.75.69-57.55v-.76s-11.45,0-11.45,0v.76c1.28,90.01,2.46,194.19.54,291.44l-.02.76h12.95l-.03-.78c-.71-17.71-1.15-35.82-1.58-53.38,10.07,8.2,19.29,16.06,28.14,24l.59.53,7.36-9.08-.55-.47c-13.62-11.66-24.93-21.45-36.03-32.23-.41-20.17-.68-41.91-.82-66.41,11.2,6.85,23.47,14.19,36.44,21.95,4.88,2.92,9.81,5.87,14.75,8.84l.36,1.09c5.14,15.69,10.45,31.92,14.65,48.2l.2.78,12.33-4.21-.27-.72c-3.96-10.6-7.91-22.13-12.37-36.15,20.7,12.54,35.28,21.69,47.08,29.57l.68.45,6.45-11.64-.67-.36c-15.86-8.53-32.54-17.79-49.59-27.53.89-.35,1.77-.71,2.66-1.06,3.49-1.39,7.09-2.82,10.66-4.15,1.83-.67,3.66-1.34,5.49-2.01,6.37-2.33,12.95-4.75,19.5-6.89l.71-.23-3.68-11.22-2.18.79c-15.58,5.68-31.69,11.56-47.85,16.34-16.34-9.54-32.66-19.48-48.51-29.56,16.18-10.69,32.74-21.35,49.26-31.7,7.33,2.03,15.14,4.37,24.52,7.35,1.85.6,3.7,1.2,5.55,1.8,6.45,2.09,13.13,4.25,19.62,6.6l.74.27,3.52-11.28-.7-.23c-10.84-3.52-24.96-8.2-38.99-13.36,17.13-10.61,34.36-21.08,51.24-31.16l.63-.38Z"/></svg>