<?xml version="1.0" encoding="UTF-8"?><svg id="Layer_1" xmlns="http://www.w3.org/2000/svg" viewBox="0 0 300 300"><path d="M78.46,254.51c10.7-.29,23.17-6.51,34.99-14.34,14.1-9.35,27.89-19.17,42.21-28.16,18.75-11.79,38.98-19.65,61.59-19.16,21.39.46,40.19,15.12,43.28,34.68.92,5.82-.53,15.62-4.46,20.61-5.01,6.37-9,8.95-16.3,12.15-11.98,5.25-24.98,6.2-37.85,2.71-.46-.13-.9-.35-1.32-.64-2.31-1.61-1.56-5,1.21-5.53.44-.08.88-.15,1.32-.17,7.29-.46,14.8.34,21.86-1.1,11.5-2.36,19.13-13.6,18.61-25.3-.36-8.12-6.22-18.11-15.97-21.22-9.98-3.19-19.82-1.2-29.66.98-22.73,5.03-43.24,18.47-62.84,30.71-12.59,7.87-25.77,14.96-39.25,21.2-6.46,2.99-14.17,4.12-21.39,4.46-19.09.89-37.27-14.84-37.93-31.94-.74-19.24,16.75-38.78,35.79-39.8,3.51-.19,7.17-.13,10.56.67.26.06.51.16.75.29,2.54,1.37,1.78,5.49-1.09,5.81-.02,0-.03,0-.05,0-18.04,1.82-33.13,12.88-32.07,30.68.93,15.6,8.02,22.56,28,22.42Z"/><path d="M8.66,130.72c-.29-2.65-.52-5.47.15-7.96.15-.54.37-1.07.65-1.58,1.71-3.2,6.36-2.97,7.67.41v.03c1.33,3.5,1.88,7.3,2.59,11.01,5.1,26.98,22.29,37.46,48.69,29.62,14.84-4.41,27.1-13.17,38.85-22.86,6.17-5.09,12.3-10.33,18.99-14.68,15.65-10.17,33.99-8.65,48.13,3.62,3.85,3.34,7.54,6.98,10.78,10.9,14.85,17.97,34.11,21.33,55.56,16.62,15.55-3.42,28.52-11.06,37.03-25.14,2.29-3.79,4.98-7.39,7.83-10.79.13-.16.29-.3.46-.42,1.85-1.34,4.56-.24,5.24,1.94.13.43.25.87.34,1.31.15.77-.33,1.73-.67,2.54-21.58,51.61-73.87,54.18-105.88,30.83-5.7-4.16-10.7-9.36-15.64-14.45-12.53-12.9-26.38-15.16-41.31-5.27-10.17,6.74-19.6,14.61-29.21,22.17-10.98,8.63-22.63,15.6-36.82,17.73-31.1,4.68-50.07-15.5-53.41-45.58Z"/><path d="M172.45,86.82c-18.73,18.96-55.92,4.52-54.71-22.96,1.89-25.65,33.18-40.36,52.78-22.23,13.18,11.91,14.3,33.63,1.93,45.19h0ZM164.32,79.9c12.46-13.31,3.74-35.65-14.32-36.51-12.5-1.26-23.91,9.97-22.21,22.52,1.02,19.1,22.39,28.17,36.53,14h0Z"/></svg>