<?xml version="1.0" encoding="UTF-8"?>
<svg id="Layer_1" xmlns="http://www.w3.org/2000/svg" version="1.1" viewBox="0 0 340.2 446.4">
  <!-- Generator: Adobe Illustrator 29.0.1, SVG Export Plug-In . SVG Version: 2.1.0 Build 192)  -->
  <path d="M339.7,154c.1-.4.2-.8.2-1l.3-.3-.4-.6c-.3-.3-.9-.8-3.6-1.6-1.3-.4-3-.8-4.4-.8s-1.8.3-2.1,1.4c-2.4,8-9.3,13.6-20.5,16.8l-1.5.4-.9-1.2c-4.9-6.4-10.4-11.7-16.3-15.9l-3.6-2.6,4.2-1.4c12.3-4.2,22.6-11.6,30.5-21.8.4-.5.6-.9.8-1.1h.8l-.5-1.2c-.2-.5-.9-1.2-2-2-2.2-1.7-4.4-2.8-5.9-2.8s-1.1.2-1.5.7c-14.7,18.9-35.3,21.8-46.3,21.8s-2.8,0-4.2-.2c-3-.4-6.2-.6-9.2-.6h-6.2s29.8-24.9,29.8-24.9c2.4-2,2.3-2.9.7-4.9-1.8-2.2-4.2-3.7-5.9-3.7s-1,.2-1.4.5l-48.5,40.4h-.2c-13.1,7-20.1,16.4-22.6,20.1l-.5.7-.8.2c-6.6,1.9-12.3,5-17,9.1-.6.5-1.2,1.1-1.8,1.6l-3.9,3.8v-13.2c0-15.2,4.6-51.7,46.8-61,19.6-4.3,36-15.3,48.5-32.5l1.1-1.5,1.7.8c12.2,5.7,21.3,13.1,23,14.5.5.4,1,.6,1.5.6,1.2,0,2.9-1.1,4.7-3.1,2.5-2.9,2.2-4.1.7-5.5-1-.9-10.3-8.8-23.8-15.3l-2.1-1,1.1-2.1c4.8-9.2,6.8-16.3,7-17.1.6-2.1-.2-2.9-3.7-3.8-1.5-.4-2.7-.6-3.7-.6-1.9,0-2.4.6-2.7,1.7,0,0-2,7.1-7,16.3l-.9,1.6-1.8-.5c-6.8-2.1-13.3-3.1-19.5-3.1s-9.6.7-14.1,1.9c-19.9,5.7-34.7,23.7-44.1,53.4l-.2.6-.5.4c-2.9,2.6-5.5,5.4-7.9,8.5l-4.1,5.3v-38.1c0-11.2,5.3-21.9,15.6-31.7,0,0,.2-.2.5-.5,14.7-13.5,34.7-20.6,35.5-20.9.6-.2.9-.5,1.1-.8.3-.6.5-1.8-.8-5.6-1-3-1.6-3.5-2-3.7h-.2c0,0-.2,0-.2,0-.3,0-.7,0-1.2.3-.9.3-9,3.1-18.9,8.7l-4.2,2.4.9-4.8c2.7-14.5,1.8-28.7,1.6-31.4-.1-1.6-1-2.1-3.8-2.1s-1.2,0-1.8,0c-1.4.1-3.2.3-4.1.9-.6.4-.8.9-.7,2,0,.3,2.3,32.7-8.5,47.8l-.2.2h-.1c-4.7,4.5-8.6,9.3-11.6,14.2l-2,3.2-1.9-3.2c-3-4.9-6.9-9.6-11.6-14.1l-.2-.2h0c-10.9-15.3-8.5-47.6-8.5-47.9,0-1-.1-1.6-.7-2-1-.6-2.8-.8-4.1-.9-.6,0-1.2,0-1.8,0-2.8,0-3.7.5-3.8,2.1-.2,2.7-1.1,16.8,1.6,31.4l.9,4.8-4.2-2.4c-9.9-5.5-18-8.4-18.9-8.7-.5-.2-.9-.2-1.3-.2h-.2s-.2,0-.2,0h-.2c-.4.3-1,.9-2,3.8-.9,2.8-1.2,4.6-.7,5.5.2.4.6.7,1.2.9.2,0,20.2,6.9,35.2,20.6h.1c0,.1,0,.2,0,.2.3.3.6.6.9.8h.2c0,.1,0,.2,0,.2,10,9.6,15.1,20.1,15.1,31.2v38.1l-4.1-5.3c-2.4-3.1-5-5.9-7.9-8.5l-.5-.4-.2-.6c-9.4-29.7-24.2-47.7-44.1-53.4-4.5-1.3-9.2-1.9-14.1-1.9s-12.8,1.1-19.6,3.1l-1.8.5-.9-1.6c-4.6-8.4-6.6-15.1-7-16.4-.3-1-.8-1.6-2.7-1.6s-2.2.2-3.7.6c-3.3.9-4.3,1.6-3.7,3.8.2.8,2.2,7.9,7.1,17.1l1.1,2.1-2.1,1c-13.9,6.7-23.4,15-23.8,15.3-1.5,1.3-1.3,2.6,1.3,5.5,1.8,2.1,3.2,3.1,4.2,3.1s1.1-.4,1.3-.6c.1,0,9.6-8.4,23-14.6l1.7-.8,1.1,1.5c12.5,17.3,28.9,28.3,48.5,32.6,42.2,9.3,46.8,45.7,46.8,61v13.2l-3.9-3.7c-.6-.6-1.2-1.1-1.8-1.6-4.7-4.1-10.5-7.1-17-9.1l-.8-.2-.5-.7c-2.4-3.7-9.4-13-22.5-19.9h-.2c0-.1-48.6-40.5-48.6-40.5-.4-.3-.9-.5-1.4-.5-1.7,0-4.1,1.5-6,3.6-1.7,2-1.8,2.9.7,4.9l29.9,24.9h-6.2c-3,0-6,.3-9.2.6-1.3.1-2.8.2-4.2.2-11,0-31.6-2.8-46.3-21.7-.4-.5-.9-.7-1.5-.7-1.4,0-3.6,1-5.8,2.8-.8.7-1.3,1.1-1.6,1.4h-.6l.2,1c0,.4.4,1.1,1.1,1.9,8,10.3,18.2,17.6,30.5,21.8l4.2,1.4-3.6,2.6c-5.9,4.2-11.3,9.5-16.3,15.9l-.9,1.2-1.5-.4c-11.3-3.2-18.2-8.8-20.5-16.8-.3-1-.8-1.4-2.2-1.4s-3,.4-4.4.8c-2.7.8-3.3,1.3-3.5,1.6h-.1c0,.1,0,.3,0,.3,0,.2-.1.7.2,1.6,3.1,10.6,10.8,17.9,23.3,22.5l2.5.9-1.3,2.3c-4.8,8.5-7,15.1-7.3,15.8-.7,2.2,0,3.1,3.3,4.3,1.3.4,2.6.7,3.6.7,1.7,0,2.7-.5,3-1.7.3-.8,3-8.6,8.7-17.7l.8-1.3,1.5.2c6.3.9,13.4,1.4,21.2,1.4,13.3,0,28.3-1.3,47.4-4.1,5.3-.8,10.3-1.2,14.9-1.2s9.4.4,13.5,1.3h.2c0,0,0,0,0,0,.4.2.9.3,1.3.3h.2s.1,0,.1,0c5.7,1.5,10.6,4,14.6,7.4,10.3,8.9,12.5,22.9,12.5,33.1v9.5c0,10.2-2.2,24.2-12.5,33-3.9,3.4-8.8,5.9-14.6,7.4h-.2c0,0-.1,0-.1,0-.5,0-.9.2-1.3.3h-.2c0,0-.1,0-.1,0-4.1.9-8.6,1.3-13.5,1.3s-9.6-.4-14.9-1.2c-19.1-2.8-34.2-4.1-47.4-4.1s-14.9.5-21.2,1.4l-1.5.2-.8-1.3c-5.7-9.2-8.4-16.9-8.7-17.7-.4-1.1-1.4-1.6-3-1.6s-2.3.2-3.6.7c-3.3,1.1-4.1,2-3.3,4.3,0,.3,2.4,7.2,7.3,15.8l1.3,2.3-2.5.9c-12.6,4.5-20.2,11.9-23.3,22.5-.1.4-.2.7-.2,1l-.3.3.4.6c.3.3.9.9,3.6,1.6,1.2.4,3,.8,4.3.8s1.8-.3,2.2-1.4c2.4-8,9.3-13.6,20.5-16.8l1.5-.4.9,1.2c4.9,6.4,10.4,11.7,16.3,15.9l3.6,2.6-4.2,1.4c-12.3,4.2-22.6,11.6-30.5,21.8-.4.5-.6.9-.8,1.1h-.8l.5,1.2c.2.5.9,1.2,2,2,2.3,1.8,4.4,2.8,5.8,2.8s1.1-.2,1.5-.7c14.7-18.9,35.3-21.8,46.3-21.8s3,0,4.4.2c3,.4,6,.6,9,.6h6.2s-29.9,24.9-29.9,24.9c-2.4,2-2.3,2.9-.7,4.9,1.8,2.2,4.3,3.7,6,3.7s1-.2,1.4-.5l48.6-40.4h.2c13-7,20.1-16.3,22.5-20l.5-.7.8-.2c6.6-1.9,12.3-5,17-9.1.6-.5,1.2-1.1,1.8-1.6l3.9-3.8v13.2c0,15.2-4.6,51.7-46.8,61-19.7,4.3-36,15.3-48.5,32.6l-1.1,1.5-1.7-.8c-13.2-6.2-22.8-14.5-22.9-14.5-.5-.4-1-.7-1.4-.7-1,0-2.4,1-4.2,3.1-2.5,2.9-2.8,4.1-1.3,5.4.4.4,10,8.6,23.8,15.3l2.1,1-1.1,2.1c-4.8,9.2-6.8,16.3-7.1,17.1-.6,2.2.4,2.9,3.6,3.8,1.5.4,2.8.6,3.8.6,1.9,0,2.4-.6,2.7-1.7.4-1.3,2.4-8,7-16.4l.9-1.6,1.8.5c6.8,2.1,13.4,3.1,19.6,3.1s9.6-.7,14.1-1.9c19.9-5.7,34.7-23.7,44.1-53.4l.2-.6.5-.4c2.9-2.6,5.5-5.4,7.9-8.5l4.1-5.3v38.1c0,11.1-5.1,21.6-15.1,31.2h-.1c0,.1,0,.2,0,.2-.3.2-.6.5-.9.8v.2c-.1,0-.2,0-.2,0-14.8,13.5-35,20.5-35.2,20.6-.4.1-.9.4-1.2.9-.5.9-.2,2.7.7,5.5,1,2.9,1.6,3.6,2.3,3.8h.1s.1,0,.1,0c.2,0,.7,0,1.3-.2.9-.3,9-3.1,18.9-8.7l4.2-2.4-.9,4.8c-2.7,14.6-1.8,28.7-1.6,31.4.1,1.6,1.1,2.1,3.8,2.1s1.2,0,1.8,0c1.4-.1,3.2-.3,4.1-.9.6-.4.8-.9.7-2,0-.3-2.4-32.6,8.5-47.8l.2-.2h.1c4.7-4.6,8.6-9.3,11.6-14.2l1.9-3.2,1.9,3.2c3,4.9,6.9,9.6,11.6,14.1l.2.2h0c10.8,15.1,8.5,47.6,8.5,47.9,0,1.1.1,1.6.7,2,1,.6,2.8.8,4.1.9.6,0,1.2,0,1.8,0,2.8,0,3.7-.5,3.8-2.1.2-2.7,1.1-16.9-1.6-31.4l-.9-4.8,4.2,2.4c10,5.6,18.1,8.4,18.9,8.7.6.2,1,.2,1.2.3h.3s.3-.1.3-.1c.4-.3.9-.9,1.9-3.7,1.3-3.8,1.1-4.9.8-5.5-.2-.3-.5-.6-1.1-.8-.8-.3-20.8-7.4-35.6-21.1,0,0-.2-.2-.5-.4-10.3-9.7-15.5-20.3-15.5-31.5v-38.1l4.1,5.3c2.4,3.1,5,5.9,7.9,8.5l.5.4.2.6c9.4,29.7,24.2,47.7,44.1,53.4,4.5,1.3,9.2,1.9,14.1,1.9s12.8-1,19.5-3.1l1.8-.5.9,1.6c5.1,9.2,7,16.3,7,16.4.3,1,.8,1.7,2.7,1.7s2.2-.2,3.7-.6c1.9-.5,2.9-1,3.4-1.5.7-.8.5-1.6.3-2.3-.2-.8-2.2-7.9-7.1-17.1l-1.1-2.1,2.1-1c13.4-6.5,22.8-14.4,23.8-15.3,1.6-1.4,1.9-2.5-.7-5.5-1.7-2-3.4-3.1-4.7-3.1s-1,.2-1.6.7c-1.7,1.4-10.7,8.7-22.9,14.4l-1.7.8-1.1-1.5c-12.5-17.3-28.9-28.2-48.5-32.5-42.2-9.3-46.8-45.7-46.8-61v-13.2l3.9,3.8c.6.6,1.2,1.1,1.8,1.6,4.7,4.1,10.5,7.1,17,9.1l.8.2.5.7c2.4,3.7,9.5,13.1,22.6,20h.2c0,.1,48.5,40.5,48.5,40.5.4.3.9.5,1.4.5,1.7,0,4.2-1.5,5.9-3.6,1.7-2,1.8-2.9-.7-4.9l-29.8-24.9h6.2c3.1,0,6.1-.3,9.4-.7,1.3,0,2.6-.1,4-.1,11,0,31.6,2.8,46.3,21.8.4.5.8.7,1.5.7,1.4,0,3.6-1,5.9-2.7.9-.7,1.4-1.2,1.6-1.4h.5c0,0,0-.9,0-.9,0-.3-.2-.9-1.1-2-8-10.3-18.2-17.6-30.5-21.8l-4.2-1.4,3.6-2.6c5.9-4.2,11.3-9.5,16.3-15.9l.9-1.2,1.5.4c11.3,3.2,18.2,8.8,20.5,16.8.3,1,.8,1.4,2.1,1.4s3-.4,4.4-.8c2.7-.8,3.3-1.3,3.5-1.6v-.2c.1,0,.2-.2.2-.2,0-.3,0-.7-.2-1.6-3.1-10.6-10.8-18-23.3-22.5l-2.5-.9,1.3-2.3c4.9-8.7,7.2-15.5,7.3-15.8.3-1,.4-1.7,0-2.3-.3-.5-1.1-1.3-3.4-2-1.4-.4-2.7-.7-3.7-.7-2.2,0-2.7.9-2.9,1.6,0,0-2.8,8.1-8.7,17.7l-.8,1.3-1.5-.2c-6.3-.9-13.4-1.4-21.2-1.4-13.3,0-28.4,1.3-47.4,4.1-5.3.8-10.4,1.2-15,1.2s-9.4-.4-13.4-1.3h-.2c0,0,0,0,0,0-.4-.2-.9-.3-1.4-.3h-.2s-.1,0-.1,0c-5.7-1.5-10.6-4-14.5-7.4-10.3-8.9-12.5-22.9-12.5-33.1v-9.5c0-10.2,2.2-24.2,12.5-33,3.9-3.4,8.8-5.9,14.5-7.4h.2c0,0,.1,0,.1,0,.5,0,.9-.2,1.4-.3h.2c0,0,.1-.1.1-.1,4.1-.9,8.6-1.3,13.4-1.3s9.6.4,15,1.2c19.1,2.8,34.2,4.1,47.5,4.1s14.9-.5,21.2-1.4l1.5-.2.8,1.3c6,9.6,8.7,17.6,8.7,17.7.3.7.8,1.6,2.9,1.6s2.3-.2,3.7-.7c2.3-.7,3.1-1.5,3.3-2,.3-.5.2-1.3,0-2.3-.2-.7-2.5-7.4-7.3-15.8l-1.3-2.3,2.5-.9c12.6-4.5,20.2-11.9,23.3-22.5ZM296,170.4l-5,.3c-3.3.2-6.8.3-10.5.3-12.8,0-28.4-1.3-46.2-4-4.9-.7-9.7-1.2-14.1-1.3l-6.3-.2,5-3.9c9.5-7.4,21.2-11.4,33.9-11.4s4.1.1,6.3.3c.2,0,1,.1,2.5.3,1,.1,2,.3,3.1.5,10.2,1.7,19.6,6.9,27.9,15.4l3.5,3.5ZM202.3,104.3l2.6-5.3c7.7-15.6,17.8-25.3,29.9-28.8,3.6-1,7.4-1.6,11.3-1.6s7.7.5,11.8,1.4l3.6.8-2.3,2.8c-10.7,13.1-23.9,21.4-39.4,24.8-4.2.9-8.3,2.1-12.1,3.6l-5.5,2.1ZM184.6,51.2h0ZM155.9,51.7h0s0,0,0,0h0ZM137.8,104.3l-5.5-2.1c-3.8-1.5-7.9-2.7-12.1-3.6-15.6-3.4-28.9-11.8-39.5-24.8l-2.3-2.8,3.6-.8c4.1-.9,8-1.4,11.8-1.4s7.8.5,11.4,1.6c12.2,3.5,22.3,13.2,30,28.8l2.6,5.3ZM126.4,165.6h-6.3c-4.5.3-9.3.7-14.2,1.4-17.9,2.6-33.4,4-46.3,4s-7.2-.1-10.5-.3l-5-.3,3.5-3.5c8.4-8.5,17.8-13.7,27.9-15.4,1-.2,2.1-.3,3.2-.5,1.3-.1,2.2-.2,2.3-.2h.4c2-.2,4.1-.3,6.1-.3,8.8,0,17,1.8,24.4,5.4h.3c.3.3.6.5.9.6h.2c0,0,0,.1,0,.1,2.8,1.5,5.6,3.3,8.1,5.3l5,3.9ZM136,176.7h0ZM49.1,275.7c3.3-.2,6.8-.3,10.5-.3,12.8,0,28.4,1.3,46.3,4,4.9.7,9.7,1.2,14.2,1.3h6.3c0,.1-5,4.1-5,4.1-2.5,2-5.3,3.8-8.1,5.3h-.2c0,0,0,.1,0,.1-.3.1-.6.3-.9.5h-.2c0,.1,0,.1,0,.1-7.4,3.6-15.6,5.4-24.4,5.4s-4.1-.1-6.4-.3c-.2,0-1-.1-2.5-.3-1-.1-2-.3-3-.5-10.2-1.7-19.6-6.9-27.9-15.4l-3.5-3.5,5-.3ZM137.8,342.1l-2.6,5.3c-7.7,15.6-17.8,25.3-30,28.8-3.6,1-7.5,1.6-11.4,1.6s-7.7-.5-11.8-1.4l-3.6-.8,2.3-2.8c10.6-13,23.9-21.4,39.5-24.8,4.2-.9,8.3-2.1,12.1-3.6l5.5-2.1ZM155.5,395.2h0s0,0,0,0ZM202.3,342.1l5.5,2.1c3.8,1.5,7.9,2.7,12.1,3.6,15.5,3.4,28.7,11.7,39.4,24.8l2.3,2.8-3.6.8c-4.1.9-8,1.4-11.8,1.4s-7.8-.5-11.3-1.6c-12.2-3.5-22.2-13.2-29.9-28.8l-2.6-5.3ZM213.9,280.8l6.3-.2c4.5-.1,9.2-.5,14.1-1.3,17.8-2.6,33.4-4,46.2-4s7.3.1,10.5.3l5,.3-3.5,3.5c-8.4,8.5-17.8,13.7-27.9,15.4-1.1.2-2.1.3-3.2.5-1.3.1-2.2.2-2.3.2h-.4c-2,.2-4,.3-6,.3-12.7,0-24.4-3.9-33.9-11.4l-5-3.9Z"/>
  <g>
    <path d="M66,238.6c1.6,0,2.8-1,2.8-4v-22.8c0-3.1-1.2-4-2.8-4v-.6h15.4c6.8,0,9.3,3.5,9.3,7.2s-2.2,6.6-8.5,7.2c7.9.6,10.7,4.1,10.7,8.7s-4.1,8.9-11.5,8.9h-15.3v-.6ZM78.5,221.7c3.3,0,4.8-3.8,4.8-7.1,0-3.3-1.4-6.6-4.8-6.6h-2.4v13.8h2.4ZM77.8,238.5h1.4c3.6,0,6.2-3.2,6.2-8.1,0-4.4-2.7-7.9-7.1-7.9h-2.2v14.4c0,.8.5,1.5,1.7,1.5Z"/>
    <path d="M96.6,238.6c1.6,0,2.8-1,2.8-4v-22.8c0-3.1-1.2-4-2.8-4v-.6h15.4c8.1,0,10.5,4.8,10.5,8.9s-2.8,8.8-11.3,8.8l-.5.3c3,0,6.8,0,9,4l3.2,5.8c1.5,2.7,2.8,3.6,4.4,3.6v.6h-10l-6-10.7c-.9-1.6-2.2-2.9-3.9-3.2h-.6s0,9.3,0,9.3c0,3,1.2,4,2.8,4v.6h-12.9v-.6ZM109.3,224.6c3.9-.1,5.9-3.9,5.9-8.5,0-4.4-2-8.2-6.1-8.2h-2.4v16.7h2.6Z"/>
  </g>
  <g>
    <path d="M218.1,238.6c1.6,0,2.8-1,2.8-4v-26.7h-1.4c-4.1,0-8,5-8.8,9.8h-.7c0,0,1.6-10.6,1.6-10.6h25.8l1.4,10.5h-.7c-.8-4.7-4.5-9.7-8.6-9.7h-1.4v26.7c0,3,1.2,4,2.8,4v.6h-12.9v-.6Z"/>
    <path d="M242.3,238.6c1.6,0,2.8-1,2.8-4v-22.8c0-3.1-1.2-4-2.8-4v-.6h12.9v.6c-1.6,0-2.8.9-2.8,4v11h11.7v-11c0-3.1-1.2-4-2.8-4v-.6h12.9v.6c-1.6,0-2.8.9-2.8,4v22.8c0,3,1.2,4,2.8,4v.6h-12.9v-.6c1.6,0,2.8-1,2.8-4v-11h-11.7v11c0,3,1.2,4,2.8,4v.6h-12.9v-.6Z"/>
  </g>
</svg>