<?xml version="1.0" encoding="UTF-8"?>
<svg id="Layer_1" xmlns="http://www.w3.org/2000/svg" version="1.1" viewBox="0 0 924.6 203.9">
  <!-- Generator: Adobe Illustrator 29.0.1, SVG Export Plug-In . SVG Version: 2.1.0 Build 192)  -->
  <g>
    <path d="M117.7,199.7c-1,2.1-2.9,4.2-5.6,4.2s-5.7-2.4-6.7-7.6l-2-10.5c-.4-1.9-1.2-2.5-2.4-2.5v-.4h8.6v.4c-1,0-1.8.6-1.5,2.5l1.9,9.9c.6,3.4,2.1,4.8,4.4,4.8s2.1-.6,3-1.4c-.3-.8-.6-1.8-.8-2.8l-2-10.5c-.4-1.9-1.2-2.5-2.4-2.5v-.4h8.5v.4c-1,0-1.8.6-1.5,2.5l1.9,9.9c.6,3.1,1.7,4.7,4.2,4.7s6.3-3.8,6.2-9c0-3.9-1.5-5.7-3.1-5.7s-1.6,1.4-3.4,1.5c-1.3,0-2.4-1-2.4-2.3s.9-2.4,3-2.4c3.4,0,6.5,2.9,6.6,8.9,0,6.2-3.6,12.4-8.5,12.4s-4.8-1.4-6.1-4.2Z"/>
    <path d="M134.8,203.2c1,0,1.8-.6,1.8-2.6v-14.7c0-2-.8-2.6-1.8-2.6v-.4h15.3l.8,6.8h-.4c-.6-4.1-3.1-6.2-6.1-6.2h-3.1v9.5h2.1c2.3,0,3.4-1.1,3.4-3.7h.4v7.9h-.4c0-2.6-1.1-3.7-3.4-3.7h-2v8.1c0,1.1.3,1.6,1.6,1.6h1.9c3.6,0,5.8-2.6,6.8-5.9h.4c0,0-1.2,6.4-1.2,6.4h-15.9v-.4Z"/>
    <path d="M154.4,203.2c1,0,1.8-.6,1.8-2.6v-14.7c0-2-.8-2.6-1.8-2.6v-.4h8.3v.4c-1,0-1.8.6-1.8,2.6v15.3c0,1.3.4,1.9,1.5,1.9h.9c3.2,0,5.9-2.4,7-6.2h.4c0,0-1.4,6.8-1.4,6.8h-14.9v-.4Z"/>
    <path d="M172.8,203.2c1,0,1.8-.6,1.8-2.6v-14.7c0-2-.8-2.6-1.8-2.6v-.4h8.3v.4c-1,0-1.8.6-1.8,2.6v15.3c0,1.3.4,1.9,1.5,1.9h.9c3.2,0,5.9-2.4,7-6.2h.4c0,0-1.4,6.8-1.4,6.8h-14.9v-.4Z"/>
    <path d="M190.4,203.2c1.6,0,3.2-1.2,3.2-4.7v-10.5c0-3.5-1.5-4.7-3.2-4.7v-.4h5.2l12.8,13.9v-8.8c0-3.5-1.6-4.7-3.4-4.7v-.4h7.3v.4c-1.6,0-3.2,1.2-3.2,4.7v15.6h-.7l-14.2-15.2v10.1c0,3.5,1.9,4.7,4,4.7v.4h-7.9v-.4Z"/>
    <path d="M214.6,203.2c1,0,1.8-.6,1.8-2.6v-14.7c0-2-.8-2.6-1.8-2.6v-.4h15.3l.8,6.8h-.4c-.6-4.1-3.1-6.2-6.1-6.2h-3.1v9.5h2.1c2.3,0,3.4-1.1,3.4-3.7h.4v7.9h-.4c0-2.6-1.1-3.7-3.4-3.7h-2v8.1c0,1.1.3,1.6,1.6,1.6h1.9c3.6,0,5.8-2.6,6.8-5.9h.4c0,0-1.2,6.4-1.2,6.4h-15.9v-.4Z"/>
    <path d="M238.1,202.7c-.9-.3-1.7-.3-1.8.9h-.5s-.8-8.4-.8-8.4h.5c.9,2.7,3,8,7.5,8.1,2.3,0,3.8-1.5,3.8-3.4,0-1.6-.9-2.8-3.4-3.9l-3-1.4c-3.1-1.4-5.1-3-5-6,0-3.9,3.5-6,7.1-6s3.3.7,4.3,1c.7.2,1.5,0,1.6-.8h.5s.6,7.4.6,7.4h-.5c-1.1-3.4-3.3-7-6.3-7.1-1.9,0-3.3,1.2-3.3,3.1s1,2.8,3.5,3.9l3.2,1.5c3.1,1.4,4.4,3.2,4.4,5.7,0,4.6-4.2,6.5-7.5,6.4-2.1,0-3.7-.7-4.9-1.1Z"/>
    <path d="M257.1,202.7c-.9-.3-1.7-.3-1.8.9h-.5s-.8-8.4-.8-8.4h.5c.9,2.7,3,8,7.5,8.1,2.3,0,3.8-1.5,3.8-3.4,0-1.6-.9-2.8-3.4-3.9l-3-1.4c-3.1-1.4-5.1-3-5-6,0-3.9,3.5-6,7.1-6s3.3.7,4.3,1c.7.2,1.5,0,1.6-.8h.5s.6,7.4.6,7.4h-.5c-1.1-3.4-3.3-7-6.3-7.1-1.9,0-3.3,1.2-3.3,3.1s1,2.8,3.5,3.9l3.2,1.5c3.1,1.4,4.4,3.2,4.4,5.7,0,4.6-4.2,6.5-7.5,6.4-2.1,0-3.7-.7-4.9-1.1Z"/>
  </g>
  <g>
    <path d="M644.6,202.7c-.9-.3-1.7-.3-1.8.9h-.5s-.8-8.4-.8-8.4h.5c.9,2.7,3.1,8,7.5,8.1,2.2,0,3.8-1.5,3.8-3.4,0-1.6-.9-2.8-3.4-3.9l-3-1.4c-3.1-1.4-5.1-3-5-6,0-3.9,3.5-6,7.1-6s3.3.7,4.3,1c.7.2,1.5,0,1.6-.8h.5s.6,7.4.6,7.4h-.5c-1.1-3.4-3.3-7-6.3-7.1-1.9,0-3.3,1.2-3.3,3.1s1,2.8,3.5,3.9l3.2,1.5c3.1,1.4,4.4,3.2,4.4,5.7,0,4.6-4.2,6.5-7.5,6.4-2.1,0-3.7-.7-4.9-1.1Z"/>
    <path d="M657.2,203.2c1.5,0,3.2-1.2,4.4-4.4l3.6-10c1.2-3.5-.2-4.6-1.8-4.6v-.5c1.6,0,3.8-.6,5.4-1.5l.4.2,6.8,18.3c.7,1.8,1.5,2.5,2.6,2.5v.4h-8.8v-.4c1.1,0,1.9-.6,1.2-2.5l-1.2-3.3h-7l-.5,1.3c-1.2,3.3.3,4.5,2.3,4.5v.4h-7.4v-.4ZM669.7,196.9l-3.3-9.4-3.3,9.4h6.7Z"/>
    <path d="M679.1,203.2c1.6,0,3.2-1.2,3.2-4.7v-10.5c0-3.5-1.5-4.7-3.2-4.7v-.4h5.2l12.8,13.9v-8.8c0-3.5-1.6-4.7-3.4-4.7v-.4h7.3v.4c-1.6,0-3.2,1.2-3.2,4.7v15.6h-.7l-14.2-15.2v10.1c0,3.5,1.9,4.7,4,4.7v.4h-7.9v-.4Z"/>
    <path d="M701.7,192.8c.3-5.7,4.8-10.3,10.5-10.3,2.8,0,4.5,1.2,5.9,1.1.6,0,1.3-.2,1.5-.9h.4s.6,8.2.6,8.2h-.4c-.9-3.8-4.2-7.9-8.1-7.9-3.5,0-6.5,3.4-6.4,8.4.1,5.4,3.9,9.3,8.7,9.2,3.3,0,5.7-2.1,6.7-4.8h.4c-.8,4.7-4.4,8.2-9.4,8.2s-10.8-5.1-10.4-11.1Z"/>
    <path d="M728.2,203.2c1,0,1.8-.6,1.8-2.6v-17.2h-.9c-2.6,0-5.2,3.2-5.7,6.3h-.4c0,0,1-6.8,1-6.8h16.7l.9,6.8h-.4c-.5-3.1-2.9-6.3-5.6-6.3h-.9v17.2c0,2,.8,2.6,1.8,2.6v.4h-8.3v-.4Z"/>
    <path d="M744.9,194.7v-8.9c0-2-.8-2.6-1.8-2.6v-.4h8.3v.4c-1,0-1.8.6-1.8,2.6v7.5c0,4.6,2,7.3,5.1,7.3s5-2.4,5-7v-5.7c0-3.5-1.7-4.7-3.4-4.7v-.4h7v.4c-1.5,0-2.9,1.2-2.9,4.7v6.2c0,6.6-3.4,9.6-7.4,9.6s-8.1-3-8.1-9.1Z"/>
    <path d="M761.4,203.2c1.5,0,3.2-1.2,4.4-4.4l3.6-10c1.2-3.5-.2-4.6-1.8-4.6v-.5c1.6,0,3.8-.6,5.4-1.5l.4.2,6.8,18.3c.7,1.8,1.5,2.5,2.6,2.5v.4h-8.8v-.4c1.1,0,1.9-.6,1.2-2.5l-1.2-3.3h-7l-.5,1.3c-1.2,3.3.3,4.5,2.3,4.5v.4h-7.4v-.4ZM773.9,196.9l-3.3-9.4-3.3,9.4h6.7Z"/>
    <path d="M784.2,203.2c1,0,1.8-.6,1.8-2.6v-14.7c0-2-.8-2.6-1.8-2.6v-.4h9.9c5.2,0,6.8,3.1,6.8,5.7s-1.8,5.7-7.3,5.7l-.3.2c2,0,4.4,0,5.8,2.6l2,3.8c.9,1.7,1.8,2.3,2.8,2.3v.4h-6.5l-3.9-6.9c-.6-1.1-1.4-1.9-2.5-2h-.4s0,6,0,6c0,2,.8,2.6,1.8,2.6v.4h-8.3v-.4ZM792.4,194.1c2.5,0,3.8-2.5,3.8-5.5,0-2.9-1.3-5.3-3.9-5.3h-1.6v10.8h1.7Z"/>
    <path d="M803,183.3v-.4h8.6v.4c-1,0-1.8.6-1,2.4l3.8,8.7,3.1-6.8c1.5-3.2.1-4.3-1.7-4.3v-.4h6.6v.4c-1.1,0-2.6,1.1-4.1,4.3l-3.6,7.6v5.4c0,2,.8,2.6,1.8,2.6v.4h-8.3v-.4c1,0,1.8-.6,1.8-2.6v-4.9l-4.6-10.1c-.8-1.8-1.5-2.4-2.4-2.4Z"/>
  </g>
  <g>
    <path d="M367,188.4c0,.4.3.7.7,1.1.4.4.6.8.6,1.5,0,1.1-.7,1.9-1.8,1.9s-2-.9-2-2.2c0-2.7,3.4-4.5,6.8-4.5h1.6c2.3,0,3.7-.8,4.5-1.2,1.3-.7,1.8-1,2.4-1s1.1.3,1.1,1c0,.9-1,1.6-3.6,1.6h-2.3c3.1.7,4.9,2.7,4.9,6.8v9.8h-4.4v-8.7l-2.3.2c-3.1.3-4.6,1.7-4.6,4.4s.9,3.4,2.5,3.4,1.2-.1,1.9-.4l.2.5c-1.2.5-2.5.8-4,.8-2.5,0-5.1-1.1-5.1-4.2s3.4-4.6,8.4-5l2.9-.2v-1.2c0-3.9-1.1-5.7-4.7-5.7s-3.6.8-3.6,1.5Z"/>
    <path d="M391,186.9c-2.9,0-4.1,1-4.1,2.4s2.3,2.6,5.4,3.6c3.8,1.2,6,2.5,6,5.3s-2.5,5.2-7.3,5.2-6.8-1.5-6.8-3.9.7-2.1,2-2.1,2,.8,2,1.8-1.1,1.7-1.1,2.3,1,1.2,4,1.2,4.8-.9,4.8-2.5-1.9-2.3-4.9-3.2c-3.9-1.2-6.6-2.3-6.6-5.6s2.5-5,6.7-5,6.6,1.5,6.6,3.9-.7,2.1-2,2.1-2-.8-2-1.8,1.2-1.7,1.2-2.3-1.1-1.3-3.9-1.3Z"/>
    <path d="M397.6,176.8h3v.5c0,3.9-2.6,5.4-8.4,5.4h-3.7v-.6h.1c1.4,0,2.2-.9,2.2-3.2s-.4-1.7-.8-1.7-.8.4-1,1.4h-.6c.2-1,1-2.2,2.8-2.2s2.5.8,2.5,2.5-1.1,2.7-2.8,3.2h1.1c3.6,0,5.5-1.4,5.5-4.9v-.5Z"/>
    <path d="M413.7,203.1h-4.4v-9.3c0-4.5-1.5-6.6-4.6-6.6s-3.8,1.3-4.5,3.7h-.6c.9-3.1,3.9-4.8,6.9-4.8,4.7,0,7.3,2.7,7.3,7.8v9.2Z"/>
    <path d="M423.4,187.2c1.2-.6,2.6-.9,4.2-.9,3.5,0,7.3,2,7.3,8.3s-3.1,8.6-9.1,8.6h-4.3l-5-16.8h4.4l4.8,16.2h0c3.1,0,4.7-3,4.7-8s-2.3-7.4-4.5-7.4-1.6.2-2.3.6l-.3-.5Z"/>
    <path d="M435.2,186.3h6.3l4.3,10.5,2.6-7.7-1.1-2.8h4.7l4.3,10.5,3.6-10.5h.6l-5.7,16.8h-.6l-5.4-13.2-4.5,13.2h-.6l-6.6-16.2h-1.9v-.6Z"/>
    <path d="M465.6,188.4c0,.4.3.7.7,1.1s.6.8.6,1.5c0,1.1-.7,1.9-1.8,1.9s-2-.9-2-2.2c0-2.7,3.4-4.5,6.8-4.5,5.3,0,8.5,1.7,8.5,7.2v9.8h-4.4v-8.7l-2.3.2c-3.1.3-4.6,1.7-4.6,4.4s.9,3.4,2.5,3.4,1.2-.1,1.9-.4l.2.5c-1.2.5-2.5.8-4,.8-2.5,0-5.1-1.1-5.1-4.2s3.4-4.6,8.4-5l2.9-.2v-1.2c0-3.9-1.1-5.7-4.7-5.7s-3.6.8-3.6,1.5Z"/>
    <path d="M482.9,180.2c-2.3,1.4-5.3,2.5-7.9,2.5s-4.5-1.2-4.5-3.1.7-1.8,1.7-1.8,1.5.5,1.5,1.4-1.2,1.4-1.2,2.1.9,1,2.5,1c2.4,0,5.3-1.2,7.5-2.5l.4.5Z"/>
    <path d="M487.8,187.2c1.2-.6,2.6-.9,4.2-.9,3.5,0,7.3,2,7.3,8.3s-3.1,8.6-9.1,8.6h-4.3l-5-16.8h4.4l4.8,16.2h0c3.1,0,4.7-3,4.7-8s-2.3-7.4-4.5-7.4-1.6.2-2.3.6l-.3-.5Z"/>
    <path d="M507.9,198.2c0,3,1,4.5,3.3,4.5s3.3-1.5,3.3-4.5v-5.5c0-.7-.3-.9-.8-.9v-.6c.7,0,1.5-.7,1.5-2.3s-.5-2-1.4-2v-.6c3.5,0,5.3.6,5.3,2.5s-1.3,2.5-3.5,2.6h0c2.8.7,3.5,1.5,3.5,4.1v1.8c0,4.2-3.4,5.9-7.8,5.9s-7.8-1.7-7.8-5.9.4-2.5,2.1-3.3l1.2-.6c1.7-.9,1.9-1.3,1.9-3.6s-.6-3-2.2-3-2,.7-2,1.1c0,.7,2,.6,2,2.3s-.8,1.8-2,1.8-2-.8-2-2.1c0-2,1.8-3.8,4.8-3.8s4.8,1.4,4.8,3-.3,2-2,2.8h-.3c-1.8,1.1-1.9,1.5-1.9,4v2.2Z"/>
    <path d="M515.4,182v-3.7h3.3v4.5h-14.5v-.8h11.2Z"/>
    <path d="M525.4,188.5c0,.8,1.3,1.2,1.3,2.5s-.7,1.9-1.8,1.9-2-.9-2-2.2c0-2.3,2.9-4.6,6.6-4.6s8.5,3.1,8.5,8.5-3.4,8.6-8.5,8.6-5.4-1.8-6.3-4.8h.6c.7,2.3,2.4,4.1,4.7,4.1s5.1-2.8,5.1-7.8-2.1-7.8-5.3-7.8-2.9.8-2.9,1.6Z"/>
    <path d="M537.2,182v.8h-14.5v-.8h14.5Z"/>
    <path d="M546.9,186.3c1.9,0,2.9.7,3.9,4.2l.3,1.1.3-1.1c1-3.5,2.1-4.2,3.9-4.2s4.3,1.2,4.3,6.1v10.7h-4.4v-13.1c0-2.3-.7-2.6-1.2-2.6s-1.1.4-1.9,3.3l-.6,2h-.6l-.6-2c-.9-3-1.4-3.3-2-3.3-.8,0-1.8,1.3-1.8,7.1s1.8,7.9,3.7,7.9,1.3-.2,2-.5l.2.5c-.8.5-2,.9-3.4.9-3.2,0-6.9-1.7-6.9-8.7s3.1-8.3,4.9-8.3Z"/>
  </g>
  <g>
    <path d="M508.7,0v6c-3.9,0-16.6-1.3-46.4-1.3s-42.4,1.3-46.4,1.3V0c4,0,16.5,1.2,46.4,1.2s42.5-1.2,46.4-1.2Z"/>
    <g>
      <path d="M0,149.4c8.5,0,14.4-2.8,14.4-15.8V45.1c0-13-5.9-16-14.4-16v-2h50.8c24.3,0,33,14.7,33,28.6s-8,25.2-25.2,28.6c24.7,2,35,16.3,35,32.9s-12.6,34.3-39.6,34.3H0v-2.1ZM50.6,83.5c15.5,0,22.4-14.7,22.2-27.5-.2-13-6.4-25.8-24.3-25.8h-23.6v53.3h25.8ZM33.8,148.5h18.3c21.1,0,30.4-13.9,30.2-30.9-.2-17.6-9.9-30.9-32.2-30.9h-25.2v56c0,3,2,5.9,8.9,5.9Z"/>
      <path d="M132,149.4c8.5,0,14.4-2.8,14.4-15.8V45.1c0-13-5.9-16-14.4-16v-2h50.5c27.5,0,38.4,18.8,38.4,34.8s-11.2,34.3-37.7,34.3l-6.2.2c8.5,0,17.6,2.7,23.8,13l15.6,25.9c6.8,11,13,14,22.9,14v2.1h-25.6l-24.2-40.3c-5.5-9.1-13.3-14.6-25.2-14.7h-7.5v37.1c0,13,5.9,15.8,14.4,15.8v2.1h-39.3v-2.1ZM181.8,93.3c22-.2,28.2-17.1,28.1-31.1-.2-14-6-32-29.7-32h-23.3v63.3l24.9-.2Z"/>
      <path d="M275.2,149.4c8.5,0,14.4-2.8,14.4-15.8V45.1c0-13-5.9-16-14.4-16v-2h82.3l5.3,32.3-2,.4c-4.3-20.4-10.8-29.7-28.6-29.7h-32.2v57h29c9.1,0,12.6-3.4,12.6-18.8h2.5v41h-2.5c0-15.5-3.6-19.2-12.8-19.2h-28.8v48.7c0,6.6,2,9.6,9.4,9.6h26.5c20.1,0,25.9-9.4,31.8-29.5l2,.5-6.9,32h-87.6v-2.1Z"/>
      <path d="M502.8,134.3l-39.3-108.9-2-.7c-5.7,5.2-12.1,7.6-19.7,7.6v2.1c14.2,0,14.9,6.9,8.5,24.7l-25.8,70.5c-5,13.5-12.6,19.7-22,19.7v2.1h38.9v-2.1c-11.7,0-17.6-6.2-12.6-19.7l6.6-17.9.9-2.8,23.1-63.6,22.7,63.6,1.1,2.8,8,22.6c4.3,12.1-2.3,15.1-11.5,15.1v2.1h41.4v-2.1c-8.5,0-14-3-18.3-15.1Z"/>
      <path d="M566.6,149.4c8.4,0,14.2-2.8,14.2-15.8V30.2h-15.1c-17.6,0-24.5,10.3-27.7,29.7l-2.3-.4,5.2-32.3h90.3l5.2,32.3-2.3.4c-3.4-19.4-9.9-29.7-27.5-29.7h-15.1v103.4c0,13,5.9,15.8,14.4,15.8v2.1h-39.1v-2.1Z"/>
      <path d="M672.7,149.4c8.5,0,14.4-2.8,14.4-15.8V45.1c0-13-5.9-16-14.4-16v-2h39.3v2c-8.5,0-14.4,3-14.4,16v42.6h68.2v-42.6c0-13-5.9-16-14.2-16v-2h39.1v2c-8.5,0-14.2,3-14.2,16v88.5c0,13,5.7,15.8,14.2,15.8v2.1h-39.1v-2.1c8.4,0,14.2-2.8,14.2-15.8v-42.8h-68.2v42.8c0,13,5.9,15.8,14.4,15.8v2.1h-39.3v-2.1Z"/>
      <path d="M830.1,149.4c8.5,0,14.4-2.8,14.4-15.8V45.1c0-13-5.9-16-14.4-16v-2h82.3l5.3,32.3-2,.4c-4.3-20.4-10.8-29.7-28.6-29.7h-32.2v57h29c9.1,0,12.6-3.4,12.6-18.8h2.5v41h-2.5c0-15.5-3.6-19.2-12.8-19.2h-28.8v48.7c0,6.6,2,9.6,9.4,9.6h26.5c20.1,0,25.9-9.4,31.8-29.5l2,.5-6.9,32h-87.6v-2.1Z"/>
    </g>
  </g>
</svg>