<?xml version="1.0" encoding="UTF-8"?>
<svg id="Layer_1" xmlns="http://www.w3.org/2000/svg" version="1.1" viewBox="0 0 924.6 151.6">
  <!-- Generator: Adobe Illustrator 29.0.1, SVG Export Plug-In . SVG Version: 2.1.0 Build 192)  -->
  <path d="M508.7,0v6c-3.9,0-16.6-1.3-46.4-1.3s-42.4,1.3-46.4,1.3V0c4,0,16.5,1.2,46.4,1.2s42.5-1.2,46.4-1.2Z"/>
  <g>
    <path d="M0,149.4c8.5,0,14.4-2.8,14.4-15.8V45.1c0-13-5.9-16-14.4-16v-2h50.8c24.3,0,33,14.7,33,28.6s-8,25.2-25.2,28.6c24.7,2,35,16.3,35,32.9s-12.6,34.3-39.6,34.3H0v-2.1ZM50.6,83.5c15.5,0,22.4-14.7,22.2-27.5-.2-13-6.4-25.8-24.3-25.8h-23.6v53.3h25.8ZM33.8,148.5h18.3c21.1,0,30.4-13.9,30.2-30.9-.2-17.6-9.9-30.9-32.2-30.9h-25.2v56c0,3,2,5.9,8.9,5.9Z"/>
    <path d="M132,149.4c8.5,0,14.4-2.8,14.4-15.8V45.1c0-13-5.9-16-14.4-16v-2h50.5c27.5,0,38.4,18.8,38.4,34.8s-11.2,34.3-37.7,34.3l-6.2.2c8.5,0,17.6,2.7,23.8,13l15.6,25.9c6.8,11,13,14,22.9,14v2.1h-25.6l-24.2-40.3c-5.5-9.1-13.3-14.6-25.2-14.7h-7.5v37.1c0,13,5.9,15.8,14.4,15.8v2.1h-39.3v-2.1ZM181.8,93.3c22-.2,28.2-17.1,28.1-31.1-.2-14-6-32-29.7-32h-23.3v63.3l24.9-.2Z"/>
    <path d="M275.2,149.4c8.5,0,14.4-2.8,14.4-15.8V45.1c0-13-5.9-16-14.4-16v-2h82.3l5.3,32.3-2,.4c-4.3-20.4-10.8-29.7-28.6-29.7h-32.2v57h29c9.1,0,12.6-3.4,12.6-18.8h2.5v41h-2.5c0-15.5-3.6-19.2-12.8-19.2h-28.8v48.7c0,6.6,2,9.6,9.4,9.6h26.5c20.1,0,25.9-9.4,31.8-29.5l2,.5-6.9,32h-87.6v-2.1Z"/>
    <path d="M502.8,134.3l-39.3-108.9-2-.7c-5.7,5.2-12.1,7.6-19.7,7.6v2.1c14.2,0,14.9,6.9,8.5,24.7l-25.8,70.5c-5,13.5-12.6,19.7-22,19.7v2.1h38.9v-2.1c-11.7,0-17.6-6.2-12.6-19.7l6.6-17.9.9-2.8,23.1-63.6,22.7,63.6,1.1,2.8,8,22.6c4.3,12.1-2.3,15.1-11.5,15.1v2.1h41.4v-2.1c-8.5,0-14-3-18.3-15.1Z"/>
    <path d="M566.6,149.4c8.4,0,14.2-2.8,14.2-15.8V30.2h-15.1c-17.6,0-24.5,10.3-27.7,29.7l-2.3-.4,5.2-32.3h90.3l5.2,32.3-2.3.4c-3.4-19.4-9.9-29.7-27.5-29.7h-15.1v103.4c0,13,5.9,15.8,14.4,15.8v2.1h-39.1v-2.1Z"/>
    <path d="M672.7,149.4c8.5,0,14.4-2.8,14.4-15.8V45.1c0-13-5.9-16-14.4-16v-2h39.3v2c-8.5,0-14.4,3-14.4,16v42.6h68.2v-42.6c0-13-5.9-16-14.2-16v-2h39.1v2c-8.5,0-14.2,3-14.2,16v88.5c0,13,5.7,15.8,14.2,15.8v2.1h-39.1v-2.1c8.4,0,14.2-2.8,14.2-15.8v-42.8h-68.2v42.8c0,13,5.9,15.8,14.4,15.8v2.1h-39.3v-2.1Z"/>
    <path d="M830.1,149.4c8.5,0,14.4-2.8,14.4-15.8V45.1c0-13-5.9-16-14.4-16v-2h82.3l5.3,32.3-2,.4c-4.3-20.4-10.8-29.7-28.6-29.7h-32.2v57h29c9.1,0,12.6-3.4,12.6-18.8h2.5v41h-2.5c0-15.5-3.6-19.2-12.8-19.2h-28.8v48.7c0,6.6,2,9.6,9.4,9.6h26.5c20.1,0,25.9-9.4,31.8-29.5l2,.5-6.9,32h-87.6v-2.1Z"/>
  </g>
</svg>